HIERARCHY
ROOT HipCenter
{
    OFFSET 0.0 0.0 -0.0
    CHANNELS 6 Xposition Yposition Zposition Zrotation Xrotation Yrotation
    JOINT Spine
    {
        OFFSET 0.0 0.10526026785373688 0.0
        CHANNELS 3 Zrotation Xrotation Yrotation
        JOINT ShoulderCenter
        {
            OFFSET 0.0 0.3107941448688507 0.0
            CHANNELS 3 Zrotation Xrotation Yrotation
            JOINT LeftShoulder
            {
                OFFSET 0.1942979395389557 0.0 0.0
                CHANNELS 3 Zrotation Xrotation Yrotation
                JOINT LeftElbow
                {
                    OFFSET 0.26162880659103394 0.0 0.0
                    CHANNELS 3 Zrotation Xrotation Yrotation
                    JOINT LeftWrist
                    {
                        OFFSET 0.30868566036224365 0.0 0.0
                        CHANNELS 3 Zrotation Xrotation Yrotation
                        JOINT LeftHand
                        {
                            OFFSET 0.03130514174699783 0.0 0.0
                            CHANNELS 3 Zrotation Xrotation Yrotation
                            End Site
                            {
                                OFFSET 0.012522056698799133 0.0 0.0
                            }
                        }
                    }
                }
            }
            JOINT RightShoulder
            {
                OFFSET -0.1942979395389557 0.0 0.0
                CHANNELS 3 Zrotation Xrotation Yrotation
                JOINT RightElbow
                {
                    OFFSET -0.26162880659103394 0.0 0.0
                    CHANNELS 3 Zrotation Xrotation Yrotation
                    JOINT RightWrist
                    {
                        OFFSET -0.30868566036224365 0.0 0.0
                        CHANNELS 3 Zrotation Xrotation Yrotation
                        JOINT RightHand
                        {
                            OFFSET -0.03130514174699783 0.0 0.0
                            CHANNELS 3 Zrotation Xrotation Yrotation
                            End Site
                            {
                                OFFSET -0.012522056698799133 0.0 0.0
                            }
                        }
                    }
                }
            }
            End Site
            {
                OFFSET 0.0 0.12431765347719193 0.0
            }
        }
    }
    JOINT LeftHip
    {
        OFFSET 0.14161977171897888 0.0 0.0
        CHANNELS 3 Zrotation Xrotation Yrotation
        JOINT LeftKnee
        {
            OFFSET 0.0 -0.4168095290660858 0.0
            CHANNELS 3 Zrotation Xrotation Yrotation
            JOINT LeftAnkle
            {
                OFFSET 0.0 -0.43669557571411133 0.0
                CHANNELS 3 Zrotation Xrotation Yrotation
                JOINT LeftFoot
                {
                    OFFSET 0.0 -0.11315186321735382 0.0
                    CHANNELS 3 Zrotation Xrotation Yrotation
                    End Site
                    {
                        OFFSET 0.0 0.0 0.045260749757289886
                    }
                }
            }
        }
    }
    JOINT RightHip
    {
        OFFSET -0.14161977171897888 0.0 0.0
        CHANNELS 3 Zrotation Xrotation Yrotation
        JOINT RightKnee
        {
            OFFSET 0.0 -0.4168095290660858 0.0
            CHANNELS 3 Zrotation Xrotation Yrotation
            JOINT RightAnkle
            {
                OFFSET 0.0 -0.43669557571411133 0.0
                CHANNELS 3 Zrotation Xrotation Yrotation
                JOINT RightFoot
                {
                    OFFSET 0.0 -0.11315186321735382 0.0
                    CHANNELS 3 Zrotation Xrotation Yrotation
                    End Site
                    {
                        OFFSET 0.0 0.0 0.045260749757289886
                    }
                }
            }
        }
    }
}
MOTION
Frames: 10
Frame Time: 0.03333333333333333
-0.029999999329447746 0.052000001072883606 0.3330000042915344 5.492324126088693 0.5483678480260181 11.518502985880154 1.4563069958114825 -4.238174957137629 0.6387822035910407 -1.0096497180520402e-06 9.1552675564672e-08 15.97954179779854 89.32325293523503 -7.812095736589328 161.4775753350401 -2.8035565074712845e-06 5.205457348559285e-07 53.764064772031155 -4.344130899221324e-06 11.552700619153043 25.518522587645332 3.1805546814635168e-15 0.0 0.0 -132.0896099573766 11.249355974709633 133.20606580600173 1.3188128382772758e-06 -8.517957019317432e-07 -140.3933774952763 179.999984967941 -71.06390821251388 157.24188585732801 -1.5902773407317584e-15 0.0 0.0 -0.8073979045240137 -6.487398601359629 -21.20380811727067 -6.096488831272819 23.941905069335714 -24.393828278709663 86.62511491117012 -47.563181310960424 138.21580507819795 -3.1805546814635168e-15 -5.565970692561154e-15 1.5902773407317582e-15 -27.033005322488897 -1.0326907490566823 41.952211552069464 -0.054729131601846684 0.03821234667814494 0.07924528461115464 -64.6398820022857 -44.68662128706872 -138.92596250344516 3.1805546814635168e-15 1.5902773407317584e-15 -4.4139062980501586e-32
-0.029999999329447746 0.052000001072883606 0.3330000042915344 5.440331840961202 -8.00215779864666e-09 11.973291208921854 1.4836678464437638 -3.327948304883737 0.4938425990433169 -5.994912375012569e-07 -8.010338945553527e-08 15.625834648605371 89.52474248696133 -7.622874323896063 161.6722060699595 6.778849304790424e-07 -1.1697371554673479e-06 53.20611524140877 -5.372975847424723e-07 9.173593856359398 26.871468299407002 6.361109362927035e-15 -1.7655625192200634e-31 -3.1805546814635176e-15 -131.8457675199002 11.599903374208678 132.54768417185696 -1.5821616317068785e-06 4.2394536134976984e-08 -140.00586184866953 -179.99999256403333 -67.1705035880281 159.1394686768107 6.3611093629270335e-15 7.062250076880254e-31 1.2722218725854067e-14 -0.5867540056159145 -6.117141098148466 -20.925332107069323 -5.941383255751222 24.128828427824256 -25.039801193001693 86.61719953984446 -47.68537145101059 138.60635091682857 1.1034765745125397e-31 7.95138670365879e-15 -1.5902773407317582e-15 -27.04695511961214 -0.3325294302600891 42.064909611107105 -0.1150149188029554 -0.07564840559281175 -0.15811914041429984 -64.50352784956631 -44.656466329467676 -138.97851333837875 -3.1805546814635164e-15 8.827812596100317e-32 -3.1805546814635164e-15
-0.029999999329447746 0.052000001072883606 0.3330000042915344 5.440331897810693 -0.5432088241316111 12.037640396947072 1.4518927782400826 -2.5816221621234527 0.37652240541646037 2.389262797493257e-07 3.674871058130722e-07 15.476525883210536 89.72550588393727 -6.705859304813562 161.71143319684384 -1.8190526404967128e-06 -3.233832986571305e-06 52.730267184506495 6.0350102951945165e-06 9.690186788184553 26.967722098811088 3.1805546814635176e-15 -3.1805546814635176e-15 8.827812596100317e-32 -131.9650361501057 11.822122253063862 132.24863301441073 -8.642300776266236e-07 6.101748683521456e-06 -140.11918530370323 179.9999891753629 -62.4784114359847 157.40371832641347 -3.1805546814635168e-15 1.7655625192200634e-31 -6.3611093629270335e-15 -0.4508421425593839 -5.4505521530337395 -21.174720365304868 -5.974943061488136 23.850529120890826 -24.75855505763377 86.4267533423986 -47.77585596111509 138.4456643584076 1.1034765745125397e-31 7.95138670365879e-15 -1.5902773407317582e-15 -26.93370554667827 0.17013242427699982 42.24870859906231 -0.1150149188029554 -0.07564840559281175 -0.15811914041429984 -63.693698229793014 -44.73427028698825 -138.11493413021688 -6.3611093629270335e-15 0.0 0.0
-0.029999999329447746 0.052000001072883606 0.3330000042915344 5.440331587278025 -0.5432089083536883 11.969787437546271 1.0963653329730403 -2.5060889326558398 0.34933138418267534 1.84749792910857e-07 4.3220635470662976e-07 16.44214548010986 90.36088865187068 -7.341029441387283 162.00060910122363 -3.1367512006488804e-07 1.2649995942645356e-06 52.27286437539739 -1.6533798673729533e-06 13.53825681855803 27.58829205838712 0.0 6.3611093629270335e-15 0.0 -131.96549458994738 12.261897190382921 132.85482864224556 6.856050506652699e-08 -9.55114072897954e-07 -140.295519590169 179.99998975365426 -71.02345309747018 156.9319819633823 -4.770832022195274e-15 -2.648343778830095e-31 6.361109362927033e-15 -0.47321548990322554 -5.585802147373548 -20.125464986661456 -5.709136486123646 24.06727469579717 -24.955371556144897 86.40076471551667 -48.57102070142068 137.98553303313665 -3.1805546814635168e-15 -6.3611093629270335e-15 -3.1805546814635168e-15 -26.783940053015275 -0.01813522367377919 41.27864977899712 0.05121787441460677 0.1213881818316266 0.2548498897900786 -63.57498861175867 -45.27867663180026 -137.8235183160495 -3.1805546814635168e-15 6.3611093629270335e-15 3.1805546814635168e-15
-0.029999999329447746 0.052000001072883606 0.3330000042915344 4.899093124866893 -0.543673303970539 11.951775130391697 1.8442561743235948 -2.4742037840965145 0.35450078390829765 -4.6986996885459933e-07 -4.835997148799955e-07 16.591767306096365 90.16551209614762 -6.699367186216995 161.99950947517715 -1.8774151422745444e-07 1.6037986731221002e-06 52.04164490418728 -1.3189133902448798e-06 12.498449666953224 26.44929117352951 9.54166404439055e-15 2.648343778830095e-31 3.1805546814635168e-15 -132.05333679160546 12.520266089593518 132.93418323364114 -2.683661973732442e-06 1.3537453147625405e-06 -140.44559746580754 179.99999671047445 -66.80136721802232 158.74136318234258 3.1805546814635164e-15 -6.361109362927033e-15 1.7655625192200634e-31 0.0575772626369172 -5.697555840570145 -20.112931336789803 -5.709136486123646 24.06727469579717 -24.955371556144897 86.40076471551667 -48.57102070142068 137.98553303313665 -3.1805546814635168e-15 -6.3611093629270335e-15 -3.1805546814635168e-15 -26.404251313349935 0.03379529564205648 41.69759822323369 0.05919233033263806 -0.09638675025624759 -0.20234865532085267 -63.74823378006496 -45.23165142336557 -138.02403338359835 -2.2069531490250793e-31 -7.951386703658792e-15 -3.1805546814635168e-15
-0.029999999329447746 0.052000001072883606 0.3319999873638153 4.899093300963441 -2.3813913868998804e-08 11.892404113368883 1.5560749186126592 -2.9673145331446396 0.41580875421858243 -8.464490784001718e-08 2.1701835220776707e-07 16.625086260694516 90.46946962901076 -6.389732048744232 162.0558664109151 3.008970706667765e-06 -9.433832237984564e-07 51.734805082032274 -1.4592236782758383e-06 13.787848912542032 27.575563404377057 3.1805546814635168e-15 -3.1805546814635168e-15 -3.1805546814635168e-15 -131.88233564288012 12.59963153980267 132.88657522263122 -2.576029317590175e-06 -1.3473964738771408e-06 -140.4455899410264 179.99999978106035 -66.80135332332931 158.7414332759521 1.5902773407317584e-15 0.0 0.0 -0.04852998424546029 -6.229496612056369 -20.731128658478127 -6.009860905013881 23.998064718617815 -24.647942398994083 85.66501279193605 -48.17609684643037 137.16964381030854 1.5902773407317584e-15 7.951386703658792e-16 -1.5902773407317584e-15 -26.51726138998196 -0.46888056041037346 42.08671243772001 0.09159010195811312 0.08136850697238561 0.16851157025454142 -64.41151260997222 -44.92793610623103 -138.53978218792625 3.1805546814635168e-15 -8.827812596100317e-32 -3.1805546814635168e-15
-0.029999999329447746 0.052000001072883606 0.3319999873638153 4.899093127704886 2.5878174961413005e-08 11.637077716910593 1.389496875295228 -2.9243725694347513 0.4019388552078345 -2.61210389379221e-07 2.7266153937954544e-07 16.2308667967351 90.68943630707263 -5.844448898548397 161.952458085505 1.7118940267541945e-06 2.0912104075066813e-06 51.80672076582755 -1.6643015322688912e-06 12.129984360706935 28.321584089027933 -6.3611093629270335e-15 3.1805546814635168e-15 3.1805546814635168e-15 -131.84005623729973 12.38794966067472 132.38433147858126 -6.72414435905317e-07 -1.2664291946731454e-06 -140.40067593524822 179.99999316532376 -70.65138050755621 156.81490579034303 -1.5902773407317584e-15 0.0 0.0 -0.02065912049643747 -6.229650869562161 -20.474285722120204 -6.009860905013881 23.998064718617815 -24.647942398994083 85.66501279193605 -48.17609684643037 137.16964381030854 1.5902773407317584e-15 7.951386703658792e-16 -1.5902773407317584e-15 -26.515166195950766 -0.582870628540156 42.471528496677266 0.09181110098829236 0.08111305522343672 0.1710960029296649 -64.41839543676438 -44.31776826655279 -139.26804538109198 0.0 0.0 0.0
-0.028999999165534973 0.052000001072883606 0.3319999873638153 4.899091827651819 -9.037786756218703e-08 11.960112248571752 1.17405696288264 -2.8826181583079005 0.3847895196112508 -5.1258552103566e-07 -2.517790979834409e-07 16.43480764430185 90.95356247770212 -6.129973985676652 162.07258464458974 5.075620347361314e-06 -2.441305533022281e-06 51.969397913273646 -1.6157999584415944e-06 13.512113229857333 26.85630679616649 -3.1805546814635168e-15 0.0 0.0 -131.62349841363414 12.801257913185788 132.72090093966978 -1.172241595229349e-07 8.500900831243881e-07 -140.4235829755464 179.9999909519313 -70.73536710944879 156.9320498648207 -1.5902773407317592e-15 6.361109362927035e-15 6.361109362927035e-15 -0.05591863672959723 -6.229435018247062 -20.226889738290044 -5.734148546627643 23.933233865895744 -25.050482702674167 85.45893814701195 -48.39712421153686 137.39262574263049 -1.7655625192200634e-31 -6.3611093629270335e-15 -3.1805546814635168e-15 -26.616577007217646 -0.27683679579566267 41.84500995919484 0.057009419932504565 -0.1048248030267911 -0.21975687995455942 -64.10617053481465 -44.97348604399694 -138.4848075153649 0.0 0.0 0.0
-0.028999999165534973 0.052000001072883606 0.3319999873638153 4.899091827651819 -9.037786756218703e-08 11.960112248571752 0.994789531957631 -2.8456237878509025 0.37080061436140105 -5.701534006566415e-08 -2.6080034828047426e-07 16.354016693654522 91.07696523997626 -5.843639131469998 162.38976143840105 -3.799893536413231e-06 1.286489048255983e-06 51.593013147767294 3.0385613839895626e-06 10.591666283073106 26.85097715383851 0.0 0.0 3.1805546814635168e-15 -131.58919239859318 12.616706223521795 132.7130908879533 5.837076417733241e-06 1.0496158668946318e-06 -140.28163636795483 -179.99999847535565 -71.52725298537413 156.886491785648 -4.770832022195275e-15 5.29668755766019e-31 -1.2722218725854067e-14 -0.05591863672959723 -6.229435018247062 -20.226889738290044 -5.734148546627643 23.933233865895744 -25.050482702674167 85.45893814701195 -48.39712421153686 137.39262574263049 -1.7655625192200634e-31 -6.3611093629270335e-15 -3.1805546814635168e-15 -26.467118950022577 -0.17178705986191262 41.80084387087489 -0.12434251311884825 -0.08347089674275886 -0.17498840122309647 -63.28927114524461 -45.0472232759191 -137.61242946862592 -3.180554681463516e-15 6.3611093629270335e-15 -9.54166404439055e-15
-0.028999999165534973 0.052000001072883606 0.3319999873638153 4.356975392093368 -6.124998202555577e-09 11.880344777769709 1.7087189458742458 -2.9925499242880207 0.3992480290628918 -6.682911798974615e-07 2.0850069231984564e-07 16.51721164905545 91.03469148834075 -6.26349934088492 162.3556744843677 -2.3121049822250486e-07 1.8574572060395236e-06 51.695307477046256 -7.898893201709826e-07 10.164903687368396 26.69965264632038 1.7655625192200634e-31 -6.3611093629270335e-15 3.1805546814635168e-15 -131.63114698328107 12.593501247571847 132.9814120331033 -3.021377200227126e-06 2.470221786859992e-07 -140.51417267675345 179.99997808874988 -67.52269707530235 158.7138819963957 3.1805546814635168e-15 -6.3611093629270335e-15 1.7655625192200634e-31 0.4833388138933641 -6.341110604537962 -20.040658700167977 -5.830210906213065 23.925888534084454 -24.741152220736453 85.45633491102647 -48.75670530885892 136.9024575449279 -1.5902773407317582e-15 -6.361109362927035e-15 9.541664044390553e-15 -25.936602211105672 -0.3074740153639466 41.8229761002346 -0.021281340703128357 -0.004504985899098832 -0.009407978767883232 -63.536986598290774 -44.93464449776802 -137.81721361610707 3.1805546814635164e-15 0.0 0.0
